<svg xmlns="http://www.w3.org/2000/svg" width="63" height="63" viewBox="0 0 63 63">
  <path id="iconmonstr-map-8" d="M31.5,0C23.237,0,15.75,6.7,15.75,14.968c0,12.29,12.555,13.59,15.75,32.282,3.195-18.693,15.75-19.992,15.75-32.282C47.25,6.7,39.766,0,31.5,0Zm0,21a5.25,5.25,0,1,1,5.25-5.25A5.249,5.249,0,0,1,31.5,21ZM63,63,45.394,56.629,31.5,63,16.85,56.629,0,63,10.5,39.375l10.395-4.158a29.864,29.864,0,0,1,2.785,4.539l-9.248,3.7L9.9,53.642l7.014-2.651,3.953-7.053L19.2,51.928l11,4.7,1.3-5.305,1.221,5.313L43.614,51.67l-1.622-7.962,4.127,7.6,7.172,2.6L48.725,43.465l-9.4-3.714a29.392,29.392,0,0,1,2.788-4.544l10.555,4.168Z" fill="#2a76e6"/>
</svg>
