<svg id="Group_63" data-name="Group 63" xmlns="http://www.w3.org/2000/svg" width="361.297" height="244.328" viewBox="0 0 361.297 244.328">
  <rect id="Rectangle_33" data-name="Rectangle 33" width="46.507" height="52.003" transform="translate(64.077 113.307)" fill="#ccc"/>
  <path id="Path_102" data-name="Path 102" d="M59.77,548.294H36.094L33.557,528h28.75Z" transform="translate(-19.369 -304.768)" fill="#e6e6e6"/>
  <path id="Path_103" data-name="Path 103" d="M379.625,701.807l-.8,10.923a3.477,3.477,0,0,0,3.678,3.724l5.61-.34a1.774,1.774,0,0,0,1.613-2.2l-3.114-12.457Z" transform="translate(-291.682 -472.98)" fill="#e6e6e6"/>
  <path id="Path_104" data-name="Path 104" d="M490.648,708.494c6.6,1.545,11.32,3.74,14.418,6.711a6.357,6.357,0,0,0,4.069,1.744,10.4,10.4,0,0,0,4.727-.649h0a1.873,1.873,0,0,0,1.11-1.543,1.906,1.906,0,0,0-.8-1.762l-15.66-11.142-6.652,2.661-1.552,1.552a1.536,1.536,0,0,0,.338,2.428Z" transform="translate(-355.777 -473.208)" fill="#e6e6e6"/>
  <path id="Path_105" data-name="Path 105" d="M382.551,229.8l-44.762-.414a38.238,38.238,0,0,1,4.945-18.651c2.178-3.763,2.131-7.857,1.606-11.307a15.2,15.2,0,0,1,5.258-14.16,16.876,16.876,0,0,1,11.349-3.755l.869.036a16.915,16.915,0,0,1,13.9,8.358,14.09,14.09,0,0,1,1.675,8.583,14.213,14.213,0,0,0,1.983,8.457C382.111,213.2,382.7,221.2,382.551,229.8Z" transform="translate(-268 -172.854)" fill="#2f2e41"/>
  <path id="Path_106" data-name="Path 106" d="M407.588,552.524l-8.785,2.292-42.779-93.2,2.674,90.906h-8.785c-9.387-42.769-26.336-92.129-18.716-107.712l45.453-2.674Z" transform="translate(-263.089 -323.297)" fill="#2a76e6"/>
  <circle id="Ellipse_11" data-name="Ellipse 11" cx="11.841" cy="11.841" r="11.841" transform="translate(80.712 17.621)" fill="#ffb9b9"/>
  <path id="Path_107" data-name="Path 107" d="M389.428,263.459l-19.48-1.146c1.909-4.382,2.672-8.6,1.91-12.6h14.515C386.34,252.783,387.869,258.1,389.428,263.459Z" transform="translate(-286.563 -212.225)" fill="#ffb9b9"/>
  <path id="Path_108" data-name="Path 108" d="M213.807,183.881l-42.779,3.056,4.392-75.819,7.448-2.1,8.4,1.91,8.4-4.2,5.347,1.91Z" transform="translate(-98.719 -61.603)" fill="#2a76e6"/>
  <path id="Path_109" data-name="Path 109" d="M321.022,399.552l-29.22-6.684c8.689-28.812,24.341-94.726,19.289-118.216l15.278-6.875Z" transform="translate(-241.456 -222.654)" fill="#e6e6e6"/>
  <path id="Path_110" data-name="Path 110" d="M312.365,323.586l-11.077-6.875,9.447-27.667a13.052,13.052,0,0,1,5.705-6.777l3.182-1.842-1.91,27.883Z" transform="translate(-246.932 -229.955)" fill="#e6e6e6"/>
  <path id="Path_111" data-name="Path 111" d="M446.016,392.207c-9.222,5.336-32.275,8.31-42.4,4.583-.745-26.032-2.206-99.668,2.483-130.821l16.806,6.875-1.528,20.626C413.345,311.115,436.676,372.57,446.016,392.207Z" transform="translate(-305.528 -221.612)" fill="#e6e6e6"/>
  <path id="Path_112" data-name="Path 112" d="M296.274,160.14,285.961,156.7l-13.75-15.661L274.5,121.18l22.917,32.085Z" transform="translate(-157.123 -69.946)" fill="#e6e6e6"/>
  <path id="Path_113" data-name="Path 113" d="M425.306,402.16a2.869,2.869,0,0,0,3.427,2.161l8.754-1.983-1.265-5.588-8.754,1.982A2.865,2.865,0,0,0,425.306,402.16Z" transform="translate(-318.475 -297.1)" fill="#ffb9b9"/>
  <path id="Path_114" data-name="Path 114" d="M385.778,209.951a25.225,25.225,0,0,0-19.48-.382l-2.674-9.549H388.07Z" transform="translate(-282.913 -183.544)" fill="#2f2e41"/>
  <path id="Path_115" data-name="Path 115" d="M444.029,373.4l4.965,9.167c8.352-2.329,15.59-9.673,22.536-18.334l-1.91-6.111-11.841,3.056Z" transform="translate(-329.323 -274.801)" fill="#e6e6e6"/>
  <path id="Path_116" data-name="Path 116" d="M420.846,297.39h-1.528c0-21.609-4.449-36.668-8.785-36.668l-.382-1.528c3.888,0,6.367,6.267,7.762,11.525C419.8,277.848,420.846,287.319,420.846,297.39Z" transform="translate(-309.769 -217.701)" fill="#3f3d56"/>
  <path id="Path_117" data-name="Path 117" d="M350.246,293.086h-1.528c0-19.79,4.48-32.084,11.077-32.084l-.382,1.528C354.85,262.529,350.246,271.978,350.246,293.086Z" transform="translate(-274.309 -218.744)" fill="#3f3d56"/>
  <circle id="Ellipse_12" data-name="Ellipse 12" cx="3.82" cy="3.82" r="3.82" transform="translate(106.494 76.252)" fill="#3f3d56"/>
  <path id="Path_118" data-name="Path 118" d="M335.791,345.013h-1.528c0-5.476,3.084-9.931,6.875-9.931v1.528C338.19,336.61,335.791,340.38,335.791,345.013Z" transform="translate(-265.965 -261.504)" fill="#3f3d56"/>
  <path id="Path_119" data-name="Path 119" d="M357.4,345.013h-1.528c0-4.633-2.4-8.4-5.347-8.4v-1.528C354.316,335.082,357.4,339.537,357.4,345.013Z" transform="translate(-275.352 -261.504)" fill="#3f3d56"/>
  <circle id="Ellipse_13" data-name="Ellipse 13" cx="1.528" cy="1.528" r="1.528" transform="translate(79.757 82.363)" fill="#3f3d56"/>
  <circle id="Ellipse_14" data-name="Ellipse 14" cx="1.528" cy="1.528" r="1.528" transform="translate(67.534 82.363)" fill="#3f3d56"/>
  <path id="Path_120" data-name="Path 120" d="M118.177,165.193l9.533,1.7,21.788,30.98-11.575-2.724Z" transform="translate(-68.213 -95.351)" fill="#6c63ff"/>
  <path id="Path_121" data-name="Path 121" d="M285.81,325.347a.811.811,0,0,0-.665,1.256l20.366,30.9a.808.808,0,0,0,.491.343l9.476,2.229a.809.809,0,0,0,.847-1.254l-22.361-31.794a.8.8,0,0,0-.52-.331l-7.481-1.336a.878.878,0,0,0-.153-.014Z" transform="translate(-237.536 -255.885)" fill="#3f3d56"/>
  <path id="Path_122" data-name="Path 122" d="M316.949,376.374l.566,5.7,8.932-.887a2.865,2.865,0,1,0-.566-5.7Z" transform="translate(-255.971 -284.818)" fill="#ffb9b9"/>
  <path id="Path_123" data-name="Path 123" d="M298.578,369.518a7.368,7.368,0,0,0,7.359,7.319h1.469l1.069-8.911-8.853-3.187Z" transform="translate(-245.367 -278.622)" fill="#e6e6e6"/>
  <rect id="Rectangle_34" data-name="Rectangle 34" width="174.189" height="91.745" transform="translate(187.108)" fill="#e6e6e6"/>
  <path id="Path_124" data-name="Path 124" d="M627.278,254.649H791.32v-81.6H627.278Z" transform="translate(-435.097 -167.978)" fill="#fff"/>
  <rect id="Rectangle_35" data-name="Rectangle 35" width="58.345" height="58.345" transform="translate(204.865 16.912)" fill="#3f3d56"/>
  <circle id="Ellipse_15" data-name="Ellipse 15" cx="1.691" cy="1.691" r="1.691" transform="translate(247.567 40.165)" fill="#6c63ff"/>
  <circle id="Ellipse_16" data-name="Ellipse 16" cx="1.691" cy="1.691" r="1.691" transform="translate(241.225 34.246)" fill="#6c63ff"/>
  <path id="Path_125" data-name="Path 125" d="M711.229,249.655a3.361,3.361,0,0,0-1.762.5,10.618,10.618,0,0,0-1.635-1.917c.007-.09.014-.181.014-.273a3.38,3.38,0,0,0-5.727-2.434,10.362,10.362,0,0,0-2.732-.024c0-.027,0-.052,0-.079a3.382,3.382,0,1,0-5.606,2.544,10.628,10.628,0,0,0-1.532,1.621,3.382,3.382,0,1,0-2.163,5.982h.011c-.006.141-.011.281-.011.423a10.583,10.583,0,0,0,.306,2.524,6.339,6.339,0,1,0,8.274,7.856,10.558,10.558,0,0,0,6.909-1.025,3.383,3.383,0,1,0,4.436-4.436,10.509,10.509,0,0,0,1.2-4.5h.011a3.382,3.382,0,1,0,0-6.765Z" transform="translate(-469.158 -207.799)" fill="#2a76e6"/>
  <rect id="Rectangle_36" data-name="Rectangle 36" width="16.912" height="2.537" transform="translate(224.314 15.643)" fill="#e6e6e6"/>
  <rect id="Rectangle_37" data-name="Rectangle 37" width="58.345" height="58.345" transform="translate(279.276 16.912)" fill="#3f3d56"/>
  <circle id="Ellipse_17" data-name="Ellipse 17" cx="0.761" cy="0.761" r="0.761" transform="translate(318.764 54.963)" fill="#6c63ff"/>
  <circle id="Ellipse_18" data-name="Ellipse 18" cx="0.761" cy="0.761" r="0.761" transform="translate(315.911 52.299)" fill="#6c63ff"/>
  <path id="Path_126" data-name="Path 126" d="M905.506,288.173a1.512,1.512,0,0,0-.793.225,4.778,4.778,0,0,0-.735-.863c0-.041.006-.081.006-.123a1.521,1.521,0,0,0-2.577-1.1,4.663,4.663,0,0,0-1.23-.011c0-.012,0-.024,0-.036a1.522,1.522,0,1,0-2.523,1.145,4.782,4.782,0,0,0-.69.729,1.522,1.522,0,1,0-.973,2.692h0c0,.063,0,.127,0,.191a4.764,4.764,0,0,0,.138,1.136,2.853,2.853,0,1,0,3.723,3.535,4.751,4.751,0,0,0,3.109-.461,1.522,1.522,0,1,0,2-2,4.729,4.729,0,0,0,.542-2.024h0a1.522,1.522,0,0,0,0-3.044Z" transform="translate(-589.215 -232.449)" fill="#2a76e6"/>
  <circle id="Ellipse_19" data-name="Ellipse 19" cx="0.761" cy="0.761" r="0.761" transform="translate(324.735 40.521)" fill="#6c63ff"/>
  <circle id="Ellipse_20" data-name="Ellipse 20" cx="0.761" cy="0.761" r="0.761" transform="translate(326.525 37.052)" fill="#6c63ff"/>
  <path id="Path_127" data-name="Path 127" d="M924.781,237.174a1.512,1.512,0,0,0-.431-.7,4.783,4.783,0,0,0,.631-.942c.04-.008.08-.016.12-.027a1.521,1.521,0,0,0,.356-2.778,4.663,4.663,0,0,0-.323-1.186l.035-.008a1.522,1.522,0,1,0-1.786-2.118,4.782,4.782,0,0,0-.889-.466,1.522,1.522,0,1,0-2.855-.207l0,0c-.062.015-.123.03-.185.047a4.766,4.766,0,0,0-1.057.441,2.853,2.853,0,1,0-2.393,4.542,4.751,4.751,0,0,0,1.287,2.868,1.522,1.522,0,1,0,2.463,1.38,4.729,4.729,0,0,0,2.095-.027v0a1.522,1.522,0,1,0,2.93-.825Z" transform="translate(-600.162 -199.005)" fill="#6c63ff"/>
  <circle id="Ellipse_21" data-name="Ellipse 21" cx="0.761" cy="0.761" r="0.761" transform="translate(295.26 30.179)" fill="#6c63ff"/>
  <circle id="Ellipse_22" data-name="Ellipse 22" cx="0.761" cy="0.761" r="0.761" transform="translate(291.368 30.491)" fill="#6c63ff"/>
  <path id="Path_128" data-name="Path 128" d="M857.423,239.206a1.513,1.513,0,0,0-.369.737,4.78,4.78,0,0,0-1.133-.039c-.028-.03-.056-.059-.086-.087a1.521,1.521,0,0,0-2.547,1.165,4.664,4.664,0,0,0-.837.9l-.025-.025a1.522,1.522,0,1,0-.855,2.635,4.781,4.781,0,0,0,.074,1,1.522,1.522,0,1,0,1.332,2.534l0,0c.045.044.09.089.137.132a4.766,4.766,0,0,0,.932.665,2.853,2.853,0,1,0,5.121-.366,4.751,4.751,0,0,0,1.756-2.607,1.522,1.522,0,1,0-.128-2.82,4.729,4.729,0,0,0-1.129-1.764l0,0a1.522,1.522,0,1,0-2.248-2.052Z" transform="translate(-563.583 -205.877)" fill="#2a76e6"/>
  <rect id="Rectangle_38" data-name="Rectangle 38" width="16.912" height="2.537" transform="translate(298.724 15.643)" fill="#e6e6e6"/>
  <path id="Path_129" data-name="Path 129" d="M192.5,643.249c6.1,8.164,18.752,9.024,18.752,9.024s2.771-12.378-3.326-20.542-18.752-9.024-18.752-9.024S186.4,635.084,192.5,643.249Z" transform="translate(-181.856 -427.524)" fill="#e6e6e6"/>
  <path id="Path_130" data-name="Path 130" d="M253.9,660.048c-4.023,5.387-12.374,5.955-12.374,5.955s-1.828-8.168,2.195-13.555,12.374-5.955,12.374-5.955S257.919,654.66,253.9,660.048Z" transform="translate(-212.195 -441.253)" fill="#e6e6e6"/>
  <rect id="Rectangle_39" data-name="Rectangle 39" width="219.663" height="0.947" transform="translate(0 243.381)" fill="#3f3d56"/>
</svg>
