<svg xmlns="http://www.w3.org/2000/svg" width="60.98" height="54.29" viewBox="0 0 60.98 54.29">
  <g id="Icons" transform="translate(2 2)">
    <g id="Two-Tone" transform="translate(-2 -2)">
      <g id="Action">
        <g id="Two-Tone-_-Action-_-question_answer" data-name="Two-Tone-/-Action-/-question_answer">
          <g id="Group_78" data-name="Group 78">
            <path id="Path" d="M0,0H60.98V54.29H0Z" fill="none" fill-rule="evenodd"/>
            <path id="_-Secondary-Color" data-name="🔹-Secondary-Color" d="M15,11V4H4v8.17l.59-.58L5.17,11H15Z" transform="translate(11.378 7.654)" fill="#d0d0d0" fill-rule="evenodd"/>
            <path id="_-Primary-Color" data-name="🔹-Primary-Color" d="M56.131,12.058h-5.7v22.63H13.4v5.029a2.705,2.705,0,0,0,2.849,2.514H47.584L58.98,52.29V14.572A2.705,2.705,0,0,0,56.131,12.058ZM41.886,29.66a2.705,2.705,0,0,0,2.849-2.514V4.514A2.705,2.705,0,0,0,41.886,2H4.849A2.705,2.705,0,0,0,2,4.514v35.2L13.4,29.66ZM9.379,26.114,7.7,27.572V7.029H39.037v17.6H11.031Z" transform="translate(0 0)" fill="#2a76e6" fill-rule="evenodd"/>
          </g>
        </g>
      </g>
    </g>
  </g>
</svg>
