<svg id="g46967" xmlns="http://www.w3.org/2000/svg" xmlns:xlink="http://www.w3.org/1999/xlink" width="56.837" height="56.837" viewBox="0 0 56.837 56.837">
  <defs>
    <clipPath id="clip-path">
      <path id="path46973" d="M0-1066.664H56.837v56.837H0Z" transform="translate(0 1066.664)"/>
    </clipPath>
  </defs>
  <g id="g46969">
    <g id="g46971" clip-path="url(#clip-path)">
      <path id="path46977" d="M140.612-1011.781l23.132,23.133-23.132,23.133L117.48-988.648Z" transform="translate(-111.22 1014.706)" fill="#2a76e6"/>
      <path id="path46981" d="M193.739-955.679l20.142,20.143-20.142,20.143L173.6-935.536Z" transform="translate(-164.347 961.593)" fill="none" stroke="#000" stroke-width="0.28"/>
      <path id="path46983" d="M405.479-830.38a4.1,4.1,0,0,1-2.42-3.749,4.12,4.12,0,0,1,.032-.516,3.065,3.065,0,0,1,.446.1,3.676,3.676,0,0,0-.024.412,3.659,3.659,0,0,0,2.111,3.314,3.123,3.123,0,0,1-.145.435m5.067-1.4a4.1,4.1,0,0,1-1.782,1.443,3.074,3.074,0,0,1-.151-.431,3.64,3.64,0,0,0,2.216-3.361,3.675,3.675,0,0,0-.027-.446,3.1,3.1,0,0,1,.448-.086,4.162,4.162,0,0,1,.034.532,4.086,4.086,0,0,1-.737,2.349m-3.375-6.007a3.622,3.622,0,0,0-2.08.651,3.134,3.134,0,0,1-.319-.334,4.072,4.072,0,0,1,2.4-.772,4.07,4.07,0,0,1,2.4.771,3.122,3.122,0,0,1-.319.334,3.622,3.622,0,0,0-2.079-.65m4.441,2.461a3.754,3.754,0,0,0-3.75,3.749,3.754,3.754,0,0,0,3.75,3.75,3.763,3.763,0,0,0,.992-.133,4.489,4.489,0,0,1-1.894.415,4.48,4.48,0,0,1-3.487-1.658l-.1-.118-.1.118a4.48,4.48,0,0,1-3.487,1.658,4.491,4.491,0,0,1-1.828-.389,3.764,3.764,0,0,0,.9.108,3.754,3.754,0,0,0,3.75-3.75,3.754,3.754,0,0,0-3.75-3.749,3.755,3.755,0,0,0-3.452,2.285,4.486,4.486,0,0,1,1-1.966,4.491,4.491,0,0,1,2.759-1.487l.16-.022-.062-.149a4.465,4.465,0,0,1-.349-1.738,4.5,4.5,0,0,1,1.655-3.486,3.747,3.747,0,0,0-.908,2.448,3.754,3.754,0,0,0,3.749,3.75,3.754,3.754,0,0,0,3.75-3.75,3.748,3.748,0,0,0-.908-2.448,4.5,4.5,0,0,1,1.655,3.486,4.465,4.465,0,0,1-.353,1.749l-.062.146.157.024a4.5,4.5,0,0,1,2.706,1.5,4.493,4.493,0,0,1,1.013,2.093,3.756,3.756,0,0,0-3.514-2.44m-4.485.145a1.053,1.053,0,0,0-1.052,1.052,1.053,1.053,0,0,0,1.052,1.052,1.053,1.053,0,0,0,1.052-1.052,1.053,1.053,0,0,0-1.052-1.052" transform="translate(-377.891 853.866)"/>
      <path id="path46985" d="M381.871-523.122h-.994v-.642a1.112,1.112,0,0,0-.032-.35.14.14,0,0,0-.142-.069.15.15,0,0,0-.158.085,1.244,1.244,0,0,0-.033.365v1.717a1.162,1.162,0,0,0,.033.352.144.144,0,0,0,.15.082.141.141,0,0,0,.146-.082,1.291,1.291,0,0,0,.035-.388v-.465h.994v.144a2.766,2.766,0,0,1-.084.815.842.842,0,0,1-.371.422,1.307,1.307,0,0,1-.708.181,1.511,1.511,0,0,1-.721-.153.751.751,0,0,1-.376-.424,2.687,2.687,0,0,1-.092-.814v-1.081a4.666,4.666,0,0,1,.028-.6.823.823,0,0,1,.169-.385.94.94,0,0,1,.39-.291,1.451,1.451,0,0,1,.573-.106,1.442,1.442,0,0,1,.726.164.8.8,0,0,1,.376.409,2.383,2.383,0,0,1,.09.763Z" transform="translate(-359.297 553.682)" fill="#231f20"/>
      <path id="path46987" d="M431.137-523.781a1.1,1.1,0,0,0-.03-.33.119.119,0,0,0-.123-.072.139.139,0,0,0-.12.058.8.8,0,0,0-.042.344v1.726a1.614,1.614,0,0,0,.028.4.12.12,0,0,0,.128.075.123.123,0,0,0,.131-.087,1.761,1.761,0,0,0,.029-.414Zm.994,1.215a7.721,7.721,0,0,1-.027.789.865.865,0,0,1-.17.424.913.913,0,0,1-.387.295,1.452,1.452,0,0,1-.567.1,1.486,1.486,0,0,1-.552-.1.9.9,0,0,1-.393-.291.856.856,0,0,1-.178-.423,7.58,7.58,0,0,1-.028-.8v-.633a7.743,7.743,0,0,1,.027-.789.87.87,0,0,1,.17-.424.917.917,0,0,1,.387-.295,1.45,1.45,0,0,1,.567-.1,1.49,1.49,0,0,1,.552.1.905.905,0,0,1,.394.291.856.856,0,0,1,.177.422,7.583,7.583,0,0,1,.028.8Z" transform="translate(-406.925 553.682)" fill="#231f20"/>
      <path id="path46989" d="M478.348-523.421l-.5,3.7h-1.509l-.572-3.7h1.048q.18,1.531.259,2.59.078-1.071.165-1.9l.066-.69Z" transform="translate(-450.411 552.368)" fill="#231f20"/>
      <path id="path46991" d="M528.538-519.721h-.994v-3.7h.994Z" transform="translate(-499.434 552.369)" fill="#231f20"/>
      <path id="path46993" d="M554.715-522.786v2.431q.218,0,.269-.083a1.167,1.167,0,0,0,.05-.453v-1.436a1.843,1.843,0,0,0-.017-.322.155.155,0,0,0-.077-.1.523.523,0,0,0-.226-.033m-.994-.635h.746a4.84,4.84,0,0,1,.976.064.76.76,0,0,1,.387.21.661.661,0,0,1,.166.326,4.735,4.735,0,0,1,.033.705v1.3a2.9,2.9,0,0,1-.049.667.5.5,0,0,1-.169.263.711.711,0,0,1-.3.133,2.777,2.777,0,0,1-.535.038h-1.257Z" transform="translate(-524.216 552.368)" fill="#231f20"/>
      <path id="path46995" d="M603.089-487.766h-1.255v-.639h1.255Z" transform="translate(-569.766 519.218)" fill="#231f20"/>
      <path id="path46997" d="M629.1-523.421v3.7h-.954v-1.986a3.349,3.349,0,0,0-.021-.517.2.2,0,0,0-.117-.131,1.26,1.26,0,0,0-.428-.045h-.095v-.429a1.749,1.749,0,0,0,1.053-.593Z" transform="translate(-594.053 552.368)" fill="#231f20"/>
      <path id="path46999" d="M665.749-523.092q0,.233.063.288a.2.2,0,0,0,.13.055.163.163,0,0,0,.147-.07.538.538,0,0,0,.047-.273v-.67a.742.742,0,0,0-.044-.32.157.157,0,0,0-.147-.075.2.2,0,0,0-.129.058q-.067.058-.067.314Zm-.954,1.152h.954c0,.173,0,.282.007.328a.17.17,0,0,0,.059.114.2.2,0,0,0,.14.046.174.174,0,0,0,.122-.044.166.166,0,0,0,.053-.112c0-.046.006-.138.006-.277v-.59a.474.474,0,0,1-.213.222.76.76,0,0,1-.353.074.8.8,0,0,1-.464-.137.6.6,0,0,1-.256-.329,1.967,1.967,0,0,1-.055-.519v-.295a3.779,3.779,0,0,1,.032-.578.74.74,0,0,1,.164-.351.86.86,0,0,1,.367-.25,1.521,1.521,0,0,1,.544-.089,1.64,1.64,0,0,1,.629.1.85.85,0,0,1,.381.3.851.851,0,0,1,.156.406q.022.213.021.823v.514q0,.66-.019.883a.825.825,0,0,1-.164.422.878.878,0,0,1-.394.3,1.535,1.535,0,0,1-.575.1,1.5,1.5,0,0,1-.661-.126.772.772,0,0,1-.369-.354,1.3,1.3,0,0,1-.112-.577" transform="translate(-629.372 553.605)" fill="#231f20"/>
    </g>
  </g>
</svg>
