<svg xmlns="http://www.w3.org/2000/svg" width="60.983" height="54.285" viewBox="0 0 60.983 54.285">
  <path id="iconmonstr-info-7" d="M30.491,0C13.653,0,0,12.153,0,27.143S13.653,54.285,30.491,54.285,60.983,42.132,60.983,27.143,47.33,0,30.491,0ZM25.326,36.213c1.433-4.047,4.147-8.894,4.627-10.12.694-1.78-.536-2.569-4.421.473l-.864-1.448C29.1,20.827,38.224,19.857,35.118,26.5,33.18,30.655,31.792,33.458,31,35.62c-1.156,3.151,1.763,1.873,4.622-.477.389.565.516.749.9,1.4-6.347,5.379-13.393,5.854-11.2-.33ZM37.375,17.735a3.6,3.6,0,0,1-4.475-.05,2.4,2.4,0,0,1,.417-3.757,3.6,3.6,0,0,1,4.475.05A2.4,2.4,0,0,1,37.375,17.735Z" fill="#2a76e6"/>
</svg>
