<svg xmlns="http://www.w3.org/2000/svg" width="54" height="53.998" viewBox="0 0 54 53.998">
  <path id="logo" d="M12.656-12.023v1.9c0,9.3,7.952,16.875,17.719,16.875S48.094-.823,48.094-10.125V-20.64A8.441,8.441,0,0,0,54-28.624a8.47,8.47,0,0,0-8.237-8.5,8.447,8.447,0,0,0-8.638,8.438,8.433,8.433,0,0,0,5.906,8.047v10.515c0,6.518-5.674,11.813-12.656,11.813S17.719-3.607,17.719-10.125v-1.9A15.22,15.22,0,0,0,30.375-27V-44.35a1.264,1.264,0,0,0-.991-1.234l-7.351-1.635a1.26,1.26,0,0,0-1.508.96l-.548,2.468a1.26,1.26,0,0,0,.96,1.508l4.377.97v14.175a10.2,10.2,0,0,1-10.03,10.252A10.119,10.119,0,0,1,5.063-27V-41.3l4.377-.97a1.26,1.26,0,0,0,.96-1.508l-.548-2.479a1.265,1.265,0,0,0-1.508-.96L.991-45.584A1.264,1.264,0,0,0,0-44.35V-27A15.22,15.22,0,0,0,12.656-12.023ZM45.563-32.062a3.385,3.385,0,0,1,3.375,3.375,3.385,3.385,0,0,1-3.375,3.375,3.385,3.385,0,0,1-3.375-3.375A3.385,3.385,0,0,1,45.563-32.062Z" transform="translate(0 47.248)" fill="#2a76e6"/>
</svg>
