<svg xmlns="http://www.w3.org/2000/svg" width="23.788" height="53.235" viewBox="0 0 23.788 53.235">
  <g id="sanitize" transform="translate(-147.141 -6.733)">
    <path id="Path_834" data-name="Path 834" d="M166.886,164.99a3.255,3.255,0,0,0,3.544-3.206V135.966a5.225,5.225,0,0,0-1.519-3.712l-6.075-6.243v-1.687h-8.1v1.687l-6.075,6.243a5.225,5.225,0,0,0-1.518,3.712v25.818a3.255,3.255,0,0,0,3.543,3.206h16.2Z" transform="translate(0 -105.023)" fill="#2a76e6" opacity="0.5"/>
    <path id="Path_835" data-name="Path 835" d="M169.946,212.49a2.168,2.168,0,0,1-2.1,1.1c-.963,0-1.915-.171-2.879-.2a6.739,6.739,0,0,0-3.6.889c-2.041,1.124-4.229,2.572-6.678,1.787a11.462,11.462,0,0,1-3.251-1.883c-1.137-.84-2.463-1.743-3.908-1.474a5.244,5.244,0,0,0-.394,2.006v25.818a3.255,3.255,0,0,0,3.543,3.206h16.2a3.255,3.255,0,0,0,3.544-3.206V214.71A5.3,5.3,0,0,0,169.946,212.49Z" transform="translate(-0.001 -183.766)" fill="#2a76e6" opacity="0.4"/>
    <g id="Group_79" data-name="Group 79" transform="translate(147.141 27.511)">
      <path id="Path_836" data-name="Path 836" d="M361.635,215.194c.009.025.019.051.03.076C361.654,215.245,361.644,215.219,361.635,215.194Z" transform="translate(-338.711 -213.693)" fill="#7ed2f6" opacity="0.4"/>
      <path id="Path_837" data-name="Path 837" d="M363.061,219.344a.178.178,0,0,0,.008.028A.173.173,0,0,1,363.061,219.344Z" transform="translate(-339.984 -217.399)" fill="#7ed2f6" opacity="0.4"/>
      <path id="Path_838" data-name="Path 838" d="M364.726,227.948c0,.029.007.06.01.088C364.733,228.008,364.729,227.977,364.726,227.948Z" transform="translate(-341.471 -225.083)" fill="#7ed2f6" opacity="0.4"/>
      <path id="Path_839" data-name="Path 839" d="M363.995,223.2c0,.026.011.054.017.08C364.006,223.251,364,223.225,363.995,223.2Z" transform="translate(-340.818 -220.841)" fill="#7ed2f6" opacity="0.4"/>
      <path id="Path_840" data-name="Path 840" d="M158.267,201.394a7.137,7.137,0,0,0-2.163-.238c-1.107.066-2.213.169-3.31.333a5.931,5.931,0,0,0-1.638.421,5.533,5.533,0,0,0-.324.661c1.447-.269,2.773.635,3.908,1.475a11.462,11.462,0,0,0,3.251,1.883c2.449.785,4.636-.663,6.678-1.787a6.739,6.739,0,0,1,3.6-.889c.964.033,1.916.2,2.879.2a2.168,2.168,0,0,0,2.094-1.1c-.088.162-1.295.076-1.433.075a21.012,21.012,0,0,1-3.618-.616,10.36,10.36,0,0,0-3.744.114,8.844,8.844,0,0,1-3.144.373C160.255,202.128,159.292,201.647,158.267,201.394Z" transform="translate(-150.438 -201.146)" fill="#7ed2f6" opacity="0.4"/>
      <path id="Path_841" data-name="Path 841" d="M148.256,219.025c.034-.158.074-.31.119-.454C148.329,218.716,148.29,218.867,148.256,219.025Z" transform="translate(-148.137 -216.709)" fill="#7ed2f6" opacity="0.4"/>
      <path id="Path_842" data-name="Path 842" d="M147.536,223.949c.017-.134.036-.266.061-.393C147.572,223.683,147.551,223.815,147.536,223.949Z" transform="translate(-147.494 -221.161)" fill="#7ed2f6" opacity="0.4"/>
      <path id="Path_843" data-name="Path 843" d="M147.141,228.975c0-.177.011-.348.026-.513C147.152,228.627,147.141,228.8,147.141,228.975Z" transform="translate(-147.141 -225.542)" fill="#7ed2f6" opacity="0.4"/>
      <path id="Path_844" data-name="Path 844" d="M149.384,215.12c.044-.143.094-.278.147-.407C149.478,214.842,149.428,214.977,149.384,215.12Z" transform="translate(-149.144 -213.263)" fill="#7ed2f6" opacity="0.4"/>
    </g>
    <path id="Path_845" data-name="Path 845" d="M163.018,473.693a32.7,32.7,0,0,0-6.055.867,12.427,12.427,0,0,0-3.172,1.205,3.356,3.356,0,0,0,2.833,1.2h16.2a3.327,3.327,0,0,0,2.88-1.262A29.729,29.729,0,0,0,163.018,473.693Z" transform="translate(-5.94 -416.998)" fill="#2a76e6"/>
    <path id="Path_846" data-name="Path 846" d="M202.394,303.722a7.3,7.3,0,1,1-7.3-7.3A7.3,7.3,0,0,1,202.394,303.722Z" transform="translate(-36.31 -258.73)" fill="#fff"/>
    <path id="Path_847" data-name="Path 847" d="M209.843,312.18a6.286,6.286,0,1,1-6.287-6.286A6.287,6.287,0,0,1,209.843,312.18Z" transform="translate(-44.772 -267.188)" fill="none" stroke="#30c2e3" stroke-miterlimit="10" stroke-width="2.782"/>
    <path id="Path_848" data-name="Path 848" d="M220.4,322.913h-3.6v-3.6H214.3v3.6h-3.6v2.5h3.6v3.6h2.495v-3.6h3.6Z" transform="translate(-56.76 -279.169)" fill="#2a76e6"/>
    <rect id="Rectangle_1496" data-name="Rectangle 1496" width="10.209" height="4.05" transform="translate(153.68 16.348)" fill="#2a76e6"/>
    <g id="Group_80" data-name="Group 80" transform="translate(154.481 16.812)">
      <path id="Path_849" data-name="Path 849" d="M216.158,103.989a.169.169,0,0,1-.169.169h0a.17.17,0,0,1-.169-.169v-2.783a.17.17,0,0,1,.169-.169h0a.169.169,0,0,1,.169.169Z" transform="translate(-215.82 -101.036)" fill="#2a76e6"/>
      <path id="Path_850" data-name="Path 850" d="M227.22,103.989a.169.169,0,0,1-.169.169h0a.169.169,0,0,1-.167-.169v-2.783a.168.168,0,0,1,.167-.169h0a.169.169,0,0,1,.169.169Z" transform="translate(-225.701 -101.036)" fill="#2a76e6"/>
      <path id="Path_851" data-name="Path 851" d="M238.271,103.989a.169.169,0,0,1-.169.169h0a.169.169,0,0,1-.169-.169v-2.783a.169.169,0,0,1,.169-.169h0a.169.169,0,0,1,.169.169Z" transform="translate(-235.57 -101.036)" fill="#2a76e6"/>
      <path id="Path_852" data-name="Path 852" d="M249.325,103.989a.169.169,0,0,1-.169.169h0a.169.169,0,0,1-.168-.169v-2.783a.168.168,0,0,1,.168-.169h0a.169.169,0,0,1,.169.169Z" transform="translate(-245.443 -101.036)" fill="#2a76e6"/>
      <path id="Path_853" data-name="Path 853" d="M260.373,103.989a.169.169,0,0,1-.169.169h0a.169.169,0,0,1-.168-.169v-2.783a.168.168,0,0,1,.168-.169h0a.169.169,0,0,1,.169.169Z" transform="translate(-255.311 -101.036)" fill="#2a76e6"/>
      <path id="Path_854" data-name="Path 854" d="M271.424,103.989a.169.169,0,0,1-.169.169h0a.168.168,0,0,1-.169-.169v-2.783a.168.168,0,0,1,.169-.169h0a.169.169,0,0,1,.169.169Z" transform="translate(-265.18 -101.036)" fill="#2a76e6"/>
      <path id="Path_855" data-name="Path 855" d="M282.467,103.989a.168.168,0,0,1-.167.169h0a.169.169,0,0,1-.171-.169v-2.783a.169.169,0,0,1,.171-.169h0a.168.168,0,0,1,.167.169Z" transform="translate(-275.042 -101.036)" fill="#2a76e6"/>
      <path id="Path_856" data-name="Path 856" d="M293.529,103.989a.17.17,0,0,1-.169.169h0a.168.168,0,0,1-.169-.169v-2.783a.168.168,0,0,1,.169-.169h0a.17.17,0,0,1,.169.169Z" transform="translate(-284.922 -101.036)" fill="#2a76e6"/>
    </g>
    <rect id="Rectangle_1497" data-name="Rectangle 1497" width="7.657" height="2.278" transform="translate(154.956 14.048)" fill="#2a76e6"/>
    <rect id="Rectangle_1498" data-name="Rectangle 1498" width="1.837" height="4.271" transform="translate(157.867 9.745)" fill="#9cdbf8"/>
    <path id="Path_857" data-name="Path 857" d="M205.346,6.834c1.139.675.02,2.235.02,2.235-1.392,2.616-5.356,1.054-5.356,1.054-4.768-1.391-6.751,1.815-6.751,1.815l-.528-.5a7.027,7.027,0,0,1,4.191-2.975c1.824-.3,3.656.661,5.488.169.7-.189.96-.76,1.386-1.27C204.12,6.983,204.827,6.526,205.346,6.834Z" transform="translate(-40.718 0)" fill="#79a8ec"/>
    <g id="Group_81" data-name="Group 81" transform="translate(148.453 29.626)">
      <path id="Path_858" data-name="Path 858" d="M363.475,220.964c0-.009,0-.018-.006-.026h0C363.471,220.946,363.474,220.954,363.475,220.964Z" transform="translate(-341.661 -220.937)" fill="#fff" stroke="#fff" stroke-miterlimit="10" stroke-width="1" opacity="0.6"/>
      <path id="Path_859" data-name="Path 859" d="M364.522,226.294c.009.065.016.132.024.2C364.538,226.426,364.531,226.359,364.522,226.294Z" transform="translate(-342.601 -225.721)" fill="#fff" stroke="#fff" stroke-miterlimit="10" stroke-width="1" opacity="0.6"/>
      <path id="Path_860" data-name="Path 860" d="M364.887,229.639c.01.126.016.254.016.387C364.9,229.893,364.9,229.765,364.887,229.639Z" transform="translate(-342.927 -228.709)" fill="#fff" stroke="#fff" stroke-miterlimit="10" stroke-width="1" opacity="0.6"/>
      <path id="Path_861" data-name="Path 861" d="M363.983,223.21c.009.043.017.087.025.131C364,223.3,363.992,223.253,363.983,223.21Z" transform="translate(-342.12 -222.967)" fill="#fff" stroke="#fff" stroke-miterlimit="10" stroke-width="1" opacity="0.6"/>
      <path id="Path_862" data-name="Path 862" d="M326.278,263.229a.76.76,0,1,1-.758-.759A.759.759,0,0,1,326.278,263.229Z" transform="translate(-307.088 -258.031)" fill="#fff" stroke="#fff" stroke-miterlimit="10" stroke-width="1" opacity="0.4"/>
      <path id="Path_863" data-name="Path 863" d="M300.763,291.984a.38.38,0,1,1-.379-.379A.379.379,0,0,1,300.763,291.984Z" transform="translate(-284.979 -284.052)" fill="#fff" stroke="#fff" stroke-miterlimit="10" stroke-width="1" opacity="0.4"/>
      <path id="Path_864" data-name="Path 864" d="M285.424,240.653a.381.381,0,1,1-.381-.38A.381.381,0,0,1,285.424,240.653Z" transform="translate(-271.277 -238.207)" fill="#fff" stroke="#fff" stroke-miterlimit="10" stroke-width="1" opacity="0.4"/>
      <path id="Path_865" data-name="Path 865" d="M173.745,246.163a.38.38,0,1,1-.379-.379A.38.38,0,0,1,173.745,246.163Z" transform="translate(-171.535 -243.129)" fill="#fff" stroke="#fff" stroke-miterlimit="10" stroke-width="1" opacity="0.4"/>
      <path id="Path_866" data-name="Path 866" d="M281.877,438.859a.379.379,0,1,1-.379-.381A.379.379,0,0,1,281.877,438.859Z" transform="translate(-268.112 -415.228)" fill="#fff" stroke="#fff" stroke-miterlimit="10" stroke-width="1" opacity="0.4"/>
      <path id="Path_867" data-name="Path 867" d="M333,329.535a.379.379,0,1,1-.379-.379A.378.378,0,0,1,333,329.535Z" transform="translate(-313.775 -317.59)" fill="#fff" stroke="#fff" stroke-miterlimit="10" stroke-width="1" opacity="0.4"/>
      <path id="Path_868" data-name="Path 868" d="M197.331,468.346a.38.38,0,1,1-.381-.379A.38.38,0,0,1,197.331,468.346Z" transform="translate(-192.601 -441.565)" fill="#fff" stroke="#fff" stroke-miterlimit="10" stroke-width="1" opacity="0.4"/>
      <path id="Path_869" data-name="Path 869" d="M340.483,461.266a.38.38,0,1,1-.379-.38A.379.379,0,0,1,340.483,461.266Z" transform="translate(-320.453 -435.241)" fill="#fff" stroke="#fff" stroke-miterlimit="10" stroke-width="1" opacity="0.4"/>
      <path id="Path_870" data-name="Path 870" d="M168.69,288.24a.506.506,0,1,1-.506-.506A.506.506,0,0,1,168.69,288.24Z" transform="translate(-166.795 -280.595)" fill="#fff" stroke="#fff" stroke-miterlimit="10" stroke-width="1" opacity="0.4"/>
      <path id="Path_871" data-name="Path 871" d="M168.813,428.878a.917.917,0,1,1-.916-.917A.918.918,0,0,1,168.813,428.878Z" transform="translate(-166.17 -405.836)" fill="#fff" stroke="#fff" stroke-miterlimit="10" stroke-width="1" opacity="0.4"/>
      <path id="Path_872" data-name="Path 872" d="M165.6,352.725a.522.522,0,1,1-.523-.522A.522.522,0,0,1,165.6,352.725Z" transform="translate(-164.009 -338.173)" fill="#fff" stroke="#fff" stroke-miterlimit="10" stroke-width="1" opacity="0.4"/>
      <path id="Path_873" data-name="Path 873" d="M246.725,274.692a.522.522,0,1,1-.523-.522A.523.523,0,0,1,246.725,274.692Z" transform="translate(-236.461 -268.48)" fill="#fff" stroke="#fff" stroke-miterlimit="10" stroke-width="1" opacity="0.4"/>
      <path id="Path_874" data-name="Path 874" d="M308.133,436.226a.652.652,0,1,1-.653-.652A.652.652,0,0,1,308.133,436.226Z" transform="translate(-291.074 -412.634)" fill="#fff" stroke="#fff" stroke-miterlimit="10" stroke-width="1" opacity="0.4"/>
      <path id="Path_875" data-name="Path 875" d="M341.288,365.961a.652.652,0,1,1-.651-.653A.653.653,0,0,1,341.288,365.961Z" transform="translate(-320.685 -349.878)" fill="#fff" stroke="#fff" stroke-miterlimit="10" stroke-width="1" opacity="0.4"/>
      <path id="Path_876" data-name="Path 876" d="M160.721,387.031a.652.652,0,1,1-.653-.653A.653.653,0,0,1,160.721,387.031Z" transform="translate(-159.417 -368.697)" fill="#fff" stroke="#fff" stroke-miterlimit="10" stroke-width="1" opacity="0.4"/>
      <path id="Path_877" data-name="Path 877" d="M243.048,456.173a.378.378,0,1,1-.377-.378A.378.378,0,0,1,243.048,456.173Z" transform="translate(-233.435 -430.694)" fill="#fff" stroke="#fff" stroke-miterlimit="10" stroke-width="1" opacity="0.4"/>
    </g>
  </g>
</svg>
