<svg xmlns="http://www.w3.org/2000/svg" width="49.609" height="56.868" viewBox="0 0 49.609 56.868">
  <g id="symptoms" transform="translate(-2.428 -2.243)">
    <path id="Path_879" data-name="Path 879" d="M33.223,4.2s5.21,8.765,10.941,11.77,5.21,6.511,1.042,8.515L40,26.989l.26,7.262S32.441,37.006,30.1,40.762l9.378.5s1.042-.25.521,2.254a24.92,24.92,0,0,0-.521,7.513c.26,2-.521,9.015-13.025,5.509S.4,40.262,4.829,23.733C7.954,11.462,19.416,8.457,24.105,6.2" transform="translate(0 0.099)" fill="none" stroke="#2a76e6" stroke-linecap="round" stroke-linejoin="round" stroke-miterlimit="10" stroke-width="3"/>
    <path id="Path_880" data-name="Path 880" d="M20.638,14.3s-1.8,3.953-.12,5.391S25.909,18.493,20.638,14.3Z" transform="translate(27.131 19.482)" fill="none" stroke="#2a76e6" stroke-linecap="round" stroke-linejoin="round" stroke-miterlimit="10" stroke-width="3"/>
    <path id="Path_881" data-name="Path 881" d="M14.226,7.1s-7.786,3.354-2.635,2.995C12.19,9.975,14.226,7.1,14.226,7.1Z" transform="translate(10.452 5.581)" fill="none" stroke="#2a76e6" stroke-linecap="round" stroke-linejoin="round" stroke-miterlimit="10" stroke-width="3"/>
    <g id="Group_83" data-name="Group 83" transform="translate(25.686 3.7)">
      <g id="Group_82" data-name="Group 82">
        <path id="Path_882" data-name="Path 882" d="M13.1,3.7a.566.566,0,0,0-.6.6.6.6,0,1,0,1.2,0A.566.566,0,0,0,13.1,3.7Z" transform="translate(-12.5 -3.7)" fill="#2a76e6"/>
      </g>
    </g>
  </g>
</svg>
